<svg width="32" height="32" viewBox="0 0 32 32" fill="none" xmlns="http://www.w3.org/2000/svg">
<g clip-path="url(#clip0_223_189)">
<path d="M29.8412 7.125H23.8477V10.6226H29.8412V7.125Z" fill="#29AB70"/>
<path d="M29.8412 11.9922H23.8477V15.4898H29.8412V11.9922Z" fill="url(#paint0_linear_223_189)"/>
<path d="M29.8412 16.8672H23.8477V20.3648H29.8412V16.8672Z" fill="url(#paint1_linear_223_189)"/>
<path d="M8.11455 21.7344H2.12109V25.232H8.11455V21.7344Z" fill="url(#paint2_linear_223_189)"/>
<path d="M15.3606 21.7344H9.36719V25.232H15.3606V21.7344Z" fill="url(#paint3_linear_223_189)"/>
<path d="M22.6028 21.7344H16.6094V25.232H22.6028V21.7344Z" fill="url(#paint4_linear_223_189)"/>
<path d="M29.8412 21.7344H23.8477V25.232H29.8412V21.7344Z" fill="url(#paint5_linear_223_189)"/>
<path d="M22.6028 16.8672H16.6094V20.3648H22.6028V16.8672Z" fill="url(#paint6_linear_223_189)"/>
<path d="M15.3606 16.8672H9.36719V20.3648H15.3606V16.8672Z" fill="url(#paint7_linear_223_189)"/>
<path d="M15.3606 11.9922H9.36719V15.4898H15.3606V11.9922Z" fill="url(#paint8_linear_223_189)"/>
</g>
<defs>
<linearGradient id="paint0_linear_223_189" x1="27.2343" y1="15.9484" x2="26.4547" y2="11.5312" gradientUnits="userSpaceOnUse">
<stop stop-color="#2C8C9D"/>
<stop offset="0.04" stop-color="#298E9A"/>
<stop offset="0.39" stop-color="#129C83"/>
<stop offset="0.72" stop-color="#05A475"/>
<stop offset="1" stop-color="#00A770"/>
</linearGradient>
<linearGradient id="paint1_linear_223_189" x1="23.7583" y1="20.1886" x2="29.9305" y2="17.0434" gradientUnits="userSpaceOnUse">
<stop stop-color="#2839BA"/>
<stop offset="1" stop-color="#148CB3"/>
</linearGradient>
<linearGradient id="paint2_linear_223_189" x1="2.12109" y1="23.482" x2="8.11455" y2="23.482" gradientUnits="userSpaceOnUse">
<stop stop-color="#F6A500"/>
<stop offset="1" stop-color="#F29100"/>
</linearGradient>
<linearGradient id="paint3_linear_223_189" x1="9.36719" y1="23.482" x2="15.3606" y2="23.482" gradientUnits="userSpaceOnUse">
<stop stop-color="#F29100"/>
<stop offset="1" stop-color="#D12F5F"/>
</linearGradient>
<linearGradient id="paint4_linear_223_189" x1="16.6094" y1="23.482" x2="22.6028" y2="23.482" gradientUnits="userSpaceOnUse">
<stop stop-color="#B4197C"/>
<stop offset="1" stop-color="#472EAD"/>
</linearGradient>
<linearGradient id="paint5_linear_223_189" x1="23.8477" y1="23.482" x2="29.8412" y2="23.482" gradientUnits="userSpaceOnUse">
<stop stop-color="#2839BA"/>
<stop offset="1" stop-color="#3072B7"/>
</linearGradient>
<linearGradient id="paint6_linear_223_189" x1="16.3728" y1="19.561" x2="22.837" y2="17.671" gradientUnits="userSpaceOnUse">
<stop stop-color="#B4197C"/>
<stop offset="1" stop-color="#373AAC"/>
</linearGradient>
<linearGradient id="paint7_linear_223_189" x1="9.15719" y1="17.4489" x2="15.573" y2="19.783" gradientUnits="userSpaceOnUse">
<stop stop-color="#FFCB00"/>
<stop offset="1" stop-color="#D12F5F"/>
</linearGradient>
<linearGradient id="paint8_linear_223_189" x1="9.87408" y1="11.4418" x2="14.8537" y2="16.0377" gradientUnits="userSpaceOnUse">
<stop stop-color="#FFCF00"/>
<stop offset="1" stop-color="#ED743B"/>
</linearGradient>
<clipPath id="clip0_223_189">
<rect width="28" height="18.3448" fill="white" transform="translate(2 7)"/>
</clipPath>
</defs>
</svg>
